<?xml version="1.0" encoding="UTF-8"?>
<svg version="1.1" xmlns="http://www.w3.org/2000/svg" width="651" height="650">
<path d="M0 0 C1.45181549 0.13029113 2.90363871 0.26049612 4.35546875 0.390625 C143.20658434 13.04431469 143.20658434 13.04431469 179.41796875 56.421875 C186.53016402 65.91605396 191.47937443 75.6743113 195.5 86.8125 C195.96979425 88.08740335 196.44026649 89.36205705 196.91137695 90.63647461 C198.30033754 94.41527888 199.65446737 98.20550662 201 102 C201.37688965 103.06283203 201.7537793 104.12566406 202.14208984 105.22070312 C224.24040554 168.21876522 237.20370437 235.64439505 237.25 302.5 C237.25101212 303.83227631 237.25101212 303.83227631 237.25204468 305.19146729 C237.1743609 370.2527214 220.90801902 439.69630803 182 493 C181.53239258 493.64727051 181.06478516 494.29454102 180.58300781 494.96142578 C174.20616535 503.75322934 167.51674601 512.22929249 160.37866211 520.41625977 C159.39675404 521.54422818 158.42172205 522.67819797 157.45141602 523.81616211 C152.72777982 529.31145097 147.69726589 534.4522048 142.5625 539.5625 C141.75490234 540.37396484 140.94730469 541.18542969 140.11523438 542.02148438 C130.99052571 551.13148762 121.21479104 559.16248894 111 567 C110.13592529 567.66539795 110.13592529 567.66539795 109.25439453 568.34423828 C51.7921314 612.32628859 -22.91112175 641.4414304 -95.92871094 632.54248047 C-129.29361798 627.95220608 -160.90823764 616.89430701 -191 602 C-191.76908691 601.62166016 -192.53817383 601.24332031 -193.33056641 600.85351562 C-220.06354381 587.56752998 -244.64949604 570.19806944 -266.6796875 550.1015625 C-268.69397731 548.27717206 -270.74148614 546.50906198 -272.8125 544.75 C-281.60934169 537.05721536 -289.70991514 528.69781178 -296.9609375 519.53515625 C-298.87169214 517.15952453 -300.86866396 514.92530472 -302.9375 512.6875 C-351.62368984 458.23963089 -373.19231816 378.32247936 -373.25 306.6875 C-373.25067474 305.92010498 -373.25134949 305.15270996 -373.25204468 304.36206055 C-373.16447834 240.33879314 -361.51584128 175.46310591 -340.96777344 114.8828125 C-339.95222235 111.8576795 -338.97682637 108.82159009 -338.0078125 105.78125 C-327.34934112 72.57950237 -312.90945777 46.36176795 -281.07421875 29.4453125 C-238.07161197 9.22807678 -182.77781614 3.78289616 -136 0 C-134.18459717 -0.1544458 -134.18459717 -0.1544458 -132.33251953 -0.31201172 C-88.83380501 -3.85253972 -43.4574047 -4.04254927 0 0 Z M-296.390625 59.26953125 C-336.05813663 101.02835727 -345.68482006 187.37174525 -353 243 C-353.09301392 243.70477478 -353.18602783 244.40954956 -353.28186035 245.13568115 C-358.00302719 281.51076584 -359.21022181 320.79895089 -353 357 C-352.82839355 358.05429199 -352.65678711 359.10858398 -352.47998047 360.19482422 C-347.39533258 390.91627588 -337.92003036 419.74719874 -325 448 C-324.67249756 448.72799805 -324.34499512 449.45599609 -324.00756836 450.20605469 C-319.89229244 457.53318031 -303.74729878 460.79006009 -296 463 C-290.61745162 464.25919011 -285.53509615 465.10833818 -280 465 C-278.58490473 462.16980947 -278.61852739 459.4616206 -278.3125 456.3125 C-276.228322 439.00276541 -266.63156937 422.32185028 -255.921875 408.8203125 C-250.53094683 400.90923498 -248.25885495 393.93460891 -247.4375 384.4375 C-246.35445961 374.34995069 -244.7990536 364.75154157 -242 355 C-241.80019531 354.29101562 -241.60039062 353.58203125 -241.39453125 352.8515625 C-237.11579629 338.07047809 -230.92886682 324.01528082 -224.77441406 309.94067383 C-218.6115014 295.73605818 -213.64246296 281.49534135 -212 266 C-211.82210937 264.84564453 -211.82210937 264.84564453 -211.640625 263.66796875 C-211.33309456 260.57492222 -211.66194496 258.49180062 -213.42578125 255.92578125 C-215.21589555 253.97467166 -216.72581816 252.36358464 -219 251 C-222.49879485 251.20867564 -224.64482116 253.04103728 -227.3125 255.1875 C-228.03050781 255.75855469 -228.74851562 256.32960938 -229.48828125 256.91796875 C-230.31714844 257.60503906 -231.14601563 258.29210937 -232 259 C-232.54188965 259.43183594 -233.0837793 259.86367188 -233.64208984 260.30859375 C-238.12364976 263.97566065 -241.59357367 267.9562652 -245 272.625 C-245.51836426 273.32866699 -246.03672852 274.03233398 -246.57080078 274.75732422 C-251.62872718 281.71572812 -256.37740128 288.77734656 -259.54296875 296.81640625 C-259.92702881 297.78199463 -259.92702881 297.78199463 -260.31884766 298.76708984 C-261.02387557 300.58775614 -261.68704932 302.42446847 -262.34765625 304.26171875 C-264 307 -264 307 -266.99609375 308.01953125 C-270 308 -270 308 -273 306 C-273.65567376 300.49507237 -272.28089653 296.29581746 -270 291.375 C-269.68603271 290.68132324 -269.37206543 289.98764648 -269.04858398 289.27294922 C-259.37167434 268.43000746 -244.52419948 252.23157106 -226 239 C-226.99 234.05 -227.98 229.1 -229 224 C-234.55353444 224.79336206 -238.59886273 225.81172708 -243.5625 228.0625 C-244.25432373 228.37268066 -244.94614746 228.68286133 -245.65893555 229.00244141 C-257.20203082 234.2829758 -267.45224373 240.55280845 -277 249 C-277.92296875 249.81339844 -278.8459375 250.62679687 -279.796875 251.46484375 C-284.32905989 255.4819882 -284.32905989 255.4819882 -288.66015625 259.7109375 C-290.39673697 261.38170029 -291.62075626 261.71160682 -294 262 C-296.25 261.5625 -296.25 261.5625 -298 261 C-298.71122819 254.24333224 -298.71122819 254.24333224 -296.9453125 251.15625 C-295.39142675 249.30838587 -293.76118083 247.65157945 -292 246 C-291.12988281 245.17048828 -291.12988281 245.17048828 -290.2421875 244.32421875 C-280.41517127 235.38122281 -269.64089002 228.28524813 -258 222 C-257.21753906 221.55011719 -256.43507813 221.10023438 -255.62890625 220.63671875 C-251.47281109 218.36234938 -247.42269681 216.80151243 -242.85546875 215.5625 C-232.78061981 213.29568377 -232.78061981 213.29568377 -225 207.26953125 C-224.06786599 204.25766359 -224.06786599 204.25766359 -223.578125 201.12109375 C-221.77689529 191.3968874 -213.60633634 183.71607121 -206 178 C-204.84371094 177.50242188 -203.68742188 177.00484375 -202.49609375 176.4921875 C-197.14461088 173.51970438 -195.97250362 167.52396626 -194.0625 162.0625 C-190.50905325 152.59113549 -186.94655227 144.23892547 -181 136 C-179.86304688 134.37964844 -179.86304688 134.37964844 -178.703125 132.7265625 C-160.8200467 107.92845332 -133.44205516 93.50861931 -103.5625 88.55859375 C-102.386875 88.37425781 -101.21125 88.18992187 -100 88 C-99.21625 87.86722656 -98.4325 87.73445313 -97.625 87.59765625 C-76.82515886 84.6320539 -54.58118736 87.74369716 -35 95 C-33.9584375 95.38027344 -32.916875 95.76054688 -31.84375 96.15234375 C0.96367774 108.97314117 25.93410098 135.03356997 40 167 C49.08029673 188.30123006 52.21920568 211.0256594 52.25 234 C52.25233643 234.8008905 52.25467285 235.60178101 52.25708008 236.42694092 C52.26786043 246.27552817 51.92571076 255.86221315 50.5 265.625 C47.38427003 287.36218455 46.87778473 310.78101562 53 332 C53.18191895 332.6693457 53.36383789 333.33869141 53.55126953 334.02832031 C56.33509058 344.11376313 60.84106697 352.97506752 66 362 C66.33 362 66.66 362 67 362 C66.97905273 361.35675781 66.95810547 360.71351563 66.93652344 360.05078125 C66.41705877 341.61307325 67.34332723 326.2549978 77 310 C77.72896484 308.77216797 77.72896484 308.77216797 78.47265625 307.51953125 C80.77518848 304.05038269 82.34701036 302.29448552 86.1875 300.5625 C96.63537751 301.76143676 106.51631445 311.60734116 113.00390625 319.41015625 C117.94985496 326.15074726 122.20110751 333.77102373 124 342 C127.49308011 340.70626662 130.44878772 339.1586598 133.5625 337.125 C141.71311322 332.13457963 151.25539427 328.88048854 160.87109375 328.8671875 C161.77537109 328.86589844 162.67964844 328.86460937 163.61132812 328.86328125 C164.54396484 328.86714844 165.47660156 328.87101562 166.4375 328.875 C167.36626953 328.87113281 168.29503906 328.86726563 169.25195312 328.86328125 C173.94773585 328.86996564 178.38230069 329.02866425 183 330 C186.41721286 340.25163859 184.49439524 354.0522458 181 364 C180.6596875 364.99257813 180.319375 365.98515625 179.96875 367.0078125 C172.35009605 387.13547259 156.81115368 399.01005421 138 408 C135.99857753 408.99714999 133.99826691 409.99654129 132 411 C132.02094727 411.67764404 132.04189453 412.35528809 132.06347656 413.0534668 C132.47729755 428.58615895 131.59745626 442.87141162 128 458 C129.56020867 458.65134925 131.12328579 459.29582964 132.6875 459.9375 C133.55761719 460.29714844 134.42773438 460.65679687 135.32421875 461.02734375 C148.15712538 465.69215215 162.45403167 463.22945811 175 459 C176.02222656 458.73058594 177.04445313 458.46117187 178.09765625 458.18359375 C183.50061339 456.40738088 186.36721365 454.13415801 189.14526367 449.10327148 C190.9431265 445.47304909 192.48364734 441.75488298 194 438 C194.55300781 436.6699292 194.55300781 436.6699292 195.1171875 435.31298828 C211.44973455 395.89975707 219.1909299 355.53199175 221 313 C221.03609375 312.15775879 221.0721875 311.31551758 221.109375 310.44775391 C221.29447204 305.28701709 221.20331514 300.15912159 221 295 C220.95359375 293.81083984 220.9071875 292.62167969 220.859375 291.39648438 C218.07013954 223.76763779 204.6620513 156.93220782 180.75 93.5625 C180.37423828 92.55727295 179.99847656 91.5520459 179.61132812 90.51635742 C170.90172654 68.20083361 156.59274115 52.8416568 135.125 42.6328125 C74.14570407 17.2800074 -0.35529324 13.75593274 -65.4375 13.8125 C-67.3741301 13.81340637 -67.3741301 13.81340637 -69.34988403 13.81433105 C-190.27270018 12.97404722 -190.27270018 12.97404722 -296.390625 59.26953125 Z M-163.41015625 133.94140625 C-173.74188132 145.25373269 -183.39279927 161.58277818 -185 177 C-183.68 177 -182.36 177 -181 177 C-181.03480469 177.58265625 -181.06960937 178.1653125 -181.10546875 178.765625 C-181.57447007 192.96966503 -176.60678935 205.7988269 -166.91796875 216.21484375 C-161.84179923 220.93950663 -155.9937582 225.12578023 -149 226 C-137.89644455 224.14593539 -126.9547632 216.24183449 -120.4375 207.375 C-114.5397458 198.54798429 -111.22745941 190.69059219 -111 180 C-94.24752985 182.64512687 -78.46383338 186.65213823 -67.125 200.3125 C-63.3279728 205.61194803 -59.49018577 211.81935475 -58.71923828 218.39453125 C-58.16650258 223.51966668 -58.16650258 223.51966668 -55.31713867 227.61206055 C-53.09774267 228.95609268 -50.86471416 230.05779215 -48.5 231.125 C-46.8506891 231.95274222 -45.20481404 232.78736705 -43.5625 233.62890625 C-42.77101563 234.02867676 -41.97953125 234.42844727 -41.1640625 234.84033203 C-36.60940366 237.28106189 -32.83161538 240.57313272 -29 244 C-28.1853125 244.69609375 -27.370625 245.3921875 -26.53125 246.109375 C-3.32813769 266.30467646 -3.32813769 266.30467646 -0.16015625 278.13671875 C0 281 0 281 -2 284 C-3.8125 284.875 -3.8125 284.875 -6 285 C-9.82671222 283.09275685 -11.81864959 281.22712785 -14.0625 277.625 C-23.62521163 263.38487507 -39.55424026 245.48800303 -56.4140625 240.25 C-56.93742188 240.1675 -57.46078125 240.085 -58 240 C-58.25394531 240.80824219 -58.50789062 241.61648437 -58.76953125 242.44921875 C-59.28580078 244.05216797 -59.28580078 244.05216797 -59.8125 245.6875 C-60.14894531 246.74324219 -60.48539063 247.79898438 -60.83203125 248.88671875 C-62 252 -62 252 -63.76171875 254.58203125 C-65.3006218 256.94857084 -65.3006218 256.94857084 -64.4140625 259.5625 C-62.95062626 262.08510832 -61.41403521 263.92034656 -59.375 266 C-47.40610826 279.11600071 -34.74490164 302.18887731 -34.6875 320.5 C-34.8421875 322.2325 -34.8421875 322.2325 -35 324 C-37.97 324 -40.94 324 -44 324 C-45.95760625 319.63700661 -47.58233351 315.31397514 -48.98974609 310.74633789 C-54.10834304 294.26760782 -62.0600796 277.74535531 -76 267 C-76.721875 267.5775 -77.44375 268.155 -78.1875 268.75 C-88.99111294 275.80130915 -102.5752329 276.70703704 -114.96484375 274.3046875 C-132.59811394 270.04405978 -145.4045411 260.39203304 -155 245 C-155.66 245.70125 -156.32 246.4025 -157 247.125 C-168.09159115 258.09266276 -180.82951946 262.84699967 -196.41796875 263.04296875 C-197.27003906 263.02878906 -198.12210938 263.01460937 -199 263 C-199.14695313 264.21171875 -199.29390625 265.4234375 -199.4453125 266.671875 C-202.12991212 287.39120891 -208.84064917 305.3021369 -217.01950073 324.4017334 C-234.37260973 364.9679541 -242.63860931 406.49160505 -231 450 C-229.99213166 452.38534262 -229.99213166 452.38534262 -229 454 C-228.16082031 453.855625 -227.32164062 453.71125 -226.45703125 453.5625 C-199.42018883 449.38961114 -176.96372013 454.75165326 -151.6328125 463.94140625 C-139.6914773 468.2607546 -128.94828162 471.08699201 -116.1875 471.3125 C-115.50091309 471.33046631 -114.81432617 471.34843262 -114.10693359 471.36694336 C-101.03218906 471.34442658 -88.54248988 467.11821393 -76.3125 462.9375 C-67.2905207 459.85403872 -58.49884854 457.20138707 -49 456 C-47.80964513 451.97014143 -48.42084539 449.29736778 -49.375 445.1875 C-50.55839178 439.74120062 -51.40631768 434.37306711 -51.8125 428.8125 C-51.90144531 427.60207031 -51.99039063 426.39164062 -52.08203125 425.14453125 C-52 422 -52 422 -50 418 C-47.03 418 -44.06 418 -41 418 C-40.90501221 418.70382812 -40.81002441 419.40765625 -40.7121582 420.1328125 C-37.02139659 446.97790112 -31.80803655 468.6878531 -12 488 C-11.05833984 488.93779297 -11.05833984 488.93779297 -10.09765625 489.89453125 C2.48070999 501.55027894 20.16695983 507.4035748 37.08984375 507.21484375 C42.40330335 506.82257492 45.67634393 505.42815523 49.375 501.4375 C52.91829128 496.12256308 52.58372744 491.26812085 52 485 C48.91448077 471.05219367 41.47592333 458.38050537 34.1640625 446.2578125 C33.70733154 445.49903809 33.25060059 444.74026367 32.7800293 443.95849609 C31.91120544 442.52925794 31.03056083 441.10711093 30.13598633 439.69384766 C27.5453821 435.47208329 26.25830969 432.06539009 26 427 C27 425 27 425 29 424 C32.32421875 424.00390625 32.32421875 424.00390625 36 425 C37.99883248 427.3521145 39.34278678 429.28520503 40.8125 431.9375 C41.22628906 432.63883057 41.64007813 433.34016113 42.06640625 434.06274414 C43.40867858 436.35890917 44.70918388 438.67454584 46 441 C46.45938965 441.82628906 46.9187793 442.65257812 47.39208984 443.50390625 C51.14762916 450.2793233 51.14762916 450.2793233 52.77661133 453.32202148 C53.17001709 454.04977783 53.56342285 454.77753418 53.96875 455.52734375 C54.31357422 456.17437256 54.65839844 456.82140137 55.01367188 457.48803711 C55.93451181 459.17757967 55.93451181 459.17757967 58 460 C60.08644402 459.31944315 62.14509626 458.55311469 64.1875 457.75 C81.1225237 451.43833379 97.19342772 451.11142415 115 453 C117.27196899 446.90970993 118.64933908 441.15535423 119.25 434.6875 C119.33588379 433.83736328 119.42176758 432.98722656 119.51025391 432.11132812 C120.14441781 424.83246154 119.87059837 417.70953614 119.10644531 410.44799805 C118.59593616 404.59332091 118.59593616 404.59332091 120.66796875 401.55078125 C123.09300943 399.93814951 125.15638707 399.03647132 127.9375 398.1875 C144.48768289 392.4653623 157.84873953 382.73170439 166 367 C169.85773274 358.9072799 172.1540839 350.98822757 172 342 C157.18589052 341.26236799 145.00066545 343.600464 133 353 C129.24707126 356.59943472 126.62938953 360.53003781 124 365 C121.13879744 366.43060128 119.15989415 366.38692581 116 366 C112.82112342 362.60919831 112.86611418 359.70838648 113 355.21484375 C113 342.86958484 106.8908313 331.3067799 98.375 322.6875 C94.98880976 319.36437634 92.78903513 317.45815679 88 317 C87.03391677 318.85014053 86.0775093 320.70533473 85.125 322.5625 C84.59132813 323.59503906 84.05765625 324.62757813 83.5078125 325.69140625 C77.13898995 339.66651686 78.24253845 357.34411894 83.55078125 371.54296875 C84.90272156 374.76794767 86.3541773 377.91435442 87.875 381.0625 C90.06669819 385.60342469 90.46972871 388.17089139 89 393 C88 394 88 394 85 394.4375 C77.71487962 394.34774492 71.10134077 387.66725408 66 383 C57.63104225 374.18098685 51.85258594 364.06297927 47 353 C46.27683594 351.36417969 46.27683594 351.36417969 45.5390625 349.6953125 C34.276187 322.32311205 34.47024695 293.01931957 38.24609375 264.1484375 C43.46455859 223.57666497 38.58063741 179.23215359 13.2109375 145.74609375 C1.65748007 131.39612808 -11.49052655 120.32973968 -28 112 C-28.62100586 111.68546875 -29.24201172 111.3709375 -29.88183594 111.046875 C-40.23055808 105.91718846 -50.64482807 102.99253266 -62 101 C-63.07378906 100.80664062 -64.14757812 100.61328125 -65.25390625 100.4140625 C-102.50874022 96.2962185 -137.21536605 106.54449647 -163.41015625 133.94140625 Z M-250 423 C-254.29498975 428.83584765 -257.7245254 435.15208225 -260.8125 441.6875 C-261.10205566 442.29215088 -261.39161133 442.89680176 -261.68994141 443.51977539 C-264.30054514 449.19810741 -266.35085302 455.17611544 -266.125 461.5 C-266.08375 462.655 -266.0425 463.81 -266 465 C-257.88602288 463.92380059 -250.58739171 462.07677695 -243 459 C-243.497258 454.02742004 -244.34952908 449.25438475 -245.4375 444.375 C-247.0031385 437.28357858 -248.06975014 430.20122834 -249 423 C-249.33 423 -249.66 423 -250 423 Z M-242.4375 472.625 C-244.85106294 473.43507529 -247.26638211 474.23994053 -249.68359375 475.0390625 C-250.73087646 475.39178223 -251.77815918 475.74450195 -252.85717773 476.10791016 C-269.71649556 480.89342615 -288.39271533 478.5095026 -305 474 C-306.66323788 473.64995909 -308.32852714 473.30832995 -310 473 C-307.89922732 478.71210094 -304.57183696 483.11287928 -301 488 C-300.56864746 488.598125 -300.13729492 489.19625 -299.69287109 489.8125 C-293.10234542 498.93395304 -286.15123864 507.40416528 -278.37988281 515.5390625 C-276.26789203 517.77511219 -274.23037362 520.07590155 -272.1875 522.375 C-266.17383493 529.07006957 -259.83425792 535.15189339 -253 541 C-252.08734375 541.80179688 -251.1746875 542.60359375 -250.234375 543.4296875 C-235.00843522 556.702703 -218.32397769 567.67472778 -201 578 C-200.30729004 578.41733398 -199.61458008 578.83466797 -198.90087891 579.26464844 C-144.55681445 611.83559488 -79.28058171 626.77938748 -17.12695312 611.79345703 C1.24102112 607.13262659 18.70323778 600.69524217 36 593 C36.77633789 592.66000977 37.55267578 592.32001953 38.35253906 591.96972656 C55.0664331 584.61680757 71.04834958 575.47304546 86 565 C86.80824219 564.4534375 87.61648438 563.906875 88.44921875 563.34375 C95.90921049 558.25029348 102.98076969 552.67802506 110 547 C110.5460791 546.56123535 111.0921582 546.1224707 111.65478516 545.67041016 C119.82536275 539.05636836 127.35727977 531.84374576 134.8125 524.4375 C135.68398682 523.57527832 136.55547363 522.71305664 137.45336914 521.82470703 C145.93741604 513.29949503 153.35033231 503.99748678 160.625 494.4375 C161.17696045 493.71296631 161.7289209 492.98843262 162.29760742 492.24194336 C169.91866828 483.74686477 169.91866828 483.74686477 174 474 C172.783125 474.144375 171.56625 474.28875 170.3125 474.4375 C169.62800781 474.51871094 168.94351562 474.59992188 168.23828125 474.68359375 C165.99166231 474.96762425 165.99166231 474.96762425 163.78515625 475.515625 C151.24764084 477.69606246 138.96715115 475.93663811 127 472 C125.34179448 471.47580826 123.68289943 470.95379432 122.0234375 470.43359375 C119.48946846 469.6385012 116.9575785 468.83931656 114.43164062 468.01904297 C98.26364235 462.78320387 80.24527634 463.62994751 64.75317383 471.08056641 C63.88535278 471.53568604 63.88535278 471.53568604 63 472 C63.61161748 477.9927242 63.61161748 477.9927242 64.5625 483.9375 C65.98745684 493.91219791 64.61808503 502.33166678 59.125 510.9375 C52.26315862 517.59752252 43.7085997 520.02349798 34.25 520.375 C11.19210027 519.52374527 -9.81149058 509.23550832 -26 493 C-32.56214562 485.79629143 -37.69410165 477.73432226 -42 469 C-54.26994236 469.23472933 -65.04385633 472.57956615 -76.5234375 476.55859375 C-107.25263298 487.20516357 -133.04561726 485.08925451 -163.1678772 473.75482178 C-176.78565088 468.6316964 -189.04078469 464.74451998 -203.6875 464.5625 C-204.91641968 464.5466687 -204.91641968 464.5466687 -206.17016602 464.53051758 C-218.73753999 464.71337455 -230.63393917 468.64987359 -242.4375 472.625 Z " fill="#000000" transform="translate(399,10)"/>
<path d="M0 0 C2 2 2 2 2.375 5.9375 C2.10693995 15.76111241 -2.28939815 24.02148439 -9 31 C-15.03942668 36.54423253 -20.948579 41.81631196 -29.4375 42.125 C-34.43794057 40.54591351 -37.37139559 37.6951165 -41 34 C-41.56074219 33.43796875 -42.12148437 32.8759375 -42.69921875 32.296875 C-50.04279137 24.3798748 -52.67393684 14.69737996 -53 4 C-52.2421875 0.6875 -52.2421875 0.6875 -51 -2 C-36.95896501 -9.83057721 -13.64749932 -7.58411034 0 0 Z " fill="#000000" transform="translate(278,186)"/>
</svg>
